<svg xmlns="http://www.w3.org/2000/svg" xmlns:xlink="http://www.w3.org/1999/xlink" width="1000" zoomAndPan="magnify" viewBox="0 0 750 225" height="300" preserveAspectRatio="xMidYMid meet" version="1.0"><defs><g/></defs><path stroke-linecap="round" transform="matrix(3.548503, 0, 0, 3.555026, 44.152093, 41.162415)" fill="none" stroke-linejoin="miter" d="M 4.000437 4.000082 L 30.07217 4.000082 " stroke="#38b6ff" stroke-width="8" stroke-opacity="1" stroke-miterlimit="4"/><path stroke-linecap="round" transform="matrix(3.513517, 0, 0, 3.555026, 17.758838, 95.631796)" fill="none" stroke-linejoin="miter" d="M 3.999884 3.999905 L 37.496633 3.999905 " stroke="#38b6ff" stroke-width="8" stroke-opacity="1" stroke-miterlimit="4"/><path stroke-linecap="round" transform="matrix(3.566556, 0.000000000000007013, -0.00000000000000699, 3.555026, 62.507078, 147.674901)" fill="none" stroke-linejoin="miter" d="M 4.000038 3.999867 L 24.909349 3.999867 " stroke="#38b6ff" stroke-width="8" stroke-opacity="1" stroke-miterlimit="4"/><g fill="#00bf63" fill-opacity="1"><g transform="translate(129.553046, 173.011294)"><g><path d="M 26.734375 1.515625 C 18.640625 1.515625 14.59375 -2.65625 14.59375 -11 L 14.59375 -121.34375 C 14.59375 -129.550781 18.703125 -133.65625 26.921875 -133.65625 L 72.609375 -133.65625 C 87.273438 -133.65625 98.585938 -129.988281 106.546875 -122.65625 C 114.515625 -115.332031 118.5 -105.097656 118.5 -91.953125 C 118.5 -78.804688 114.515625 -68.535156 106.546875 -61.140625 C 98.585938 -53.742188 87.273438 -50.046875 72.609375 -50.046875 L 38.859375 -50.046875 L 38.859375 -11 C 38.859375 -2.65625 34.816406 1.515625 26.734375 1.515625 Z M 38.859375 -69.203125 L 68.828125 -69.203125 C 86.265625 -69.203125 94.984375 -76.785156 94.984375 -91.953125 C 94.984375 -106.992188 86.265625 -114.515625 68.828125 -114.515625 L 38.859375 -114.515625 Z M 38.859375 -69.203125 "/></g></g></g><g fill="#00bf63" fill-opacity="1"><g transform="translate(253.160887, 173.011294)"><g><path d="M 74.515625 1.890625 C 61.617188 1.890625 50.332031 -0.953125 40.65625 -6.640625 C 30.988281 -12.328125 23.5 -20.320312 18.1875 -30.625 C 12.882812 -40.925781 10.234375 -53.023438 10.234375 -66.921875 C 10.234375 -80.953125 12.882812 -93.085938 18.1875 -103.328125 C 23.5 -113.566406 30.957031 -121.5 40.5625 -127.125 C 50.175781 -132.75 61.492188 -135.5625 74.515625 -135.5625 C 87.523438 -135.5625 98.832031 -132.75 108.4375 -127.125 C 118.050781 -121.5 125.507812 -113.566406 130.8125 -103.328125 C 136.125 -93.085938 138.78125 -81.015625 138.78125 -67.109375 C 138.78125 -53.085938 136.125 -40.925781 130.8125 -30.625 C 125.507812 -20.320312 118.050781 -12.328125 108.4375 -6.640625 C 98.832031 -0.953125 87.523438 1.890625 74.515625 1.890625 Z M 74.515625 -18.953125 C 86.773438 -18.953125 96.316406 -23.1875 103.140625 -31.65625 C 109.960938 -40.125 113.375 -51.878906 113.375 -66.921875 C 113.375 -82.085938 109.992188 -93.84375 103.234375 -102.1875 C 96.472656 -110.53125 86.898438 -114.703125 74.515625 -114.703125 C 62.253906 -114.703125 52.707031 -110.53125 45.875 -102.1875 C 39.050781 -93.84375 35.640625 -82.085938 35.640625 -66.921875 C 35.640625 -51.878906 39.050781 -40.125 45.875 -31.65625 C 52.707031 -23.1875 62.253906 -18.953125 74.515625 -18.953125 Z M 74.515625 -18.953125 "/></g></g></g><g fill="#00bf63" fill-opacity="1"><g transform="translate(401.983181, 173.011294)"><g><path d="M 26.921875 0 C 18.703125 0 14.59375 -4.171875 14.59375 -12.515625 L 14.59375 -121.90625 C 14.59375 -130.125 18.640625 -134.234375 26.734375 -134.234375 C 34.816406 -134.234375 38.859375 -130.125 38.859375 -121.90625 L 38.859375 -20.671875 L 93.84375 -20.671875 C 100.925781 -20.671875 104.46875 -17.253906 104.46875 -10.421875 C 104.46875 -3.472656 100.925781 0 93.84375 0 Z M 26.921875 0 "/></g></g></g><g fill="#00bf63" fill-opacity="1"><g transform="translate(508.528567, 173.011294)"><g><path d="M 26.921875 0 C 18.703125 0 14.59375 -4.171875 14.59375 -12.515625 L 14.59375 -121.90625 C 14.59375 -130.125 18.640625 -134.234375 26.734375 -134.234375 C 34.816406 -134.234375 38.859375 -130.125 38.859375 -121.90625 L 38.859375 -20.671875 L 93.84375 -20.671875 C 100.925781 -20.671875 104.46875 -17.253906 104.46875 -10.421875 C 104.46875 -3.472656 100.925781 0 93.84375 0 Z M 26.921875 0 "/></g></g></g><g fill="#ff914d" fill-opacity="1"><g transform="translate(615.036308, 173.011294)"><g><path d="M 58.578125 1.515625 C 50.492188 1.515625 46.453125 -2.71875 46.453125 -11.1875 L 46.453125 -61.421875 L 5.875 -118.5 C 4.226562 -120.769531 3.5 -123.203125 3.6875 -125.796875 C 3.882812 -128.390625 4.929688 -130.601562 6.828125 -132.4375 C 8.722656 -134.269531 11.375 -135.1875 14.78125 -135.1875 C 19.71875 -135.1875 24.019531 -132.59375 27.6875 -127.40625 L 58.96875 -83.046875 L 90.4375 -127.40625 C 92.457031 -130.1875 94.414062 -132.175781 96.3125 -133.375 C 98.207031 -134.582031 100.546875 -135.1875 103.328125 -135.1875 C 108.253906 -135.1875 111.507812 -133.382812 113.09375 -129.78125 C 114.675781 -126.175781 114.015625 -122.351562 111.109375 -118.3125 L 70.71875 -61.234375 L 70.71875 -11.1875 C 70.71875 -2.71875 66.671875 1.515625 58.578125 1.515625 Z M 58.578125 1.515625 "/></g></g></g></svg>