<svg width="64" height="64" viewBox="0 0 64 64" fill="none" xmlns="http://www.w3.org/2000/svg">
<path d="M58.7 13.5502C57.2863 12.4064 55.5048 11.816 53.6878 11.889C51.8709 11.9621 50.1426 12.6937 48.8253 13.9473C47.508 15.2009 46.6918 16.8909 46.5289 18.702C46.366 20.5131 46.8676 22.3216 47.94 23.7902L40 32.3402L35.49 16.6202C36.6946 15.9809 37.703 15.0264 38.4075 13.8587C39.1119 12.691 39.4861 11.3539 39.49 9.99018C39.4901 8.99811 39.2931 8.0159 38.9104 7.10059C38.5278 6.18528 37.9671 5.35511 37.261 4.65828C36.5548 3.96144 35.7173 3.41183 34.797 3.04136C33.8767 2.67089 32.8919 2.48693 31.9 2.50018C30.2349 2.5256 28.6257 3.10442 27.326 4.14541C26.0262 5.18639 25.1099 6.63032 24.7214 8.24959C24.3329 9.86887 24.4944 11.5714 25.1803 13.0888C25.8663 14.6061 27.0377 15.8521 28.51 16.6302L24 32.3402L16.1 23.7802C17.2267 22.2305 17.7159 20.3076 17.4666 18.4079C17.2173 16.5082 16.2485 14.7766 14.76 13.5702C13.3243 12.3653 11.4896 11.7416 9.61703 11.8219C7.74449 11.9023 5.9699 12.6808 4.64272 14.0042C3.31554 15.3276 2.53197 17.1 2.44632 18.9723C2.36067 20.8446 2.97915 22.6811 4.17996 24.1202C5.271 25.4631 6.79438 26.3856 8.48996 26.7302V56.0002C8.48996 56.7233 8.63255 57.4393 8.90958 58.1073C9.1866 58.7752 9.59263 59.382 10.1044 59.8928C10.6162 60.4037 11.2237 60.8086 11.8921 61.0844C12.5606 61.3602 13.2768 61.5015 14 61.5002H50C51.4587 61.5002 52.8576 60.9207 53.889 59.8893C54.9205 58.8578 55.5 57.4589 55.5 56.0002V26.7302C56.8945 26.4471 58.1796 25.7725 59.2047 24.7855C60.2299 23.7985 60.9526 22.5399 61.2883 21.1571C61.6241 19.7742 61.559 18.3243 61.1006 16.9772C60.6422 15.63 59.8095 14.4413 58.7 13.5502V13.5502Z" fill="#030303" id="id_101"></path>
<path d="M32 2.5H31.9C30.2349 2.52542 28.6257 3.10425 27.326 4.14523C26.0262 5.18621 25.1099 6.63014 24.7214 8.24941C24.3329 9.86869 24.4944 11.5712 25.1803 13.0886C25.8663 14.606 27.0377 15.8519 28.51 16.63L24 32.34L16.1 23.78C17.2267 22.2304 17.7159 20.3074 17.4666 18.4077C17.2173 16.508 16.2485 14.7764 14.76 13.57C13.3243 12.3651 11.4896 11.7414 9.61703 11.8217C7.74449 11.9021 5.9699 12.6806 4.64272 14.004C3.31554 15.3274 2.53197 17.0998 2.44632 18.9721C2.36067 20.8444 2.97915 22.6809 4.17996 24.12C5.271 25.4629 6.79438 26.3854 8.48996 26.73V56C8.48996 56.7231 8.63255 57.4391 8.90958 58.1071C9.1866 58.775 9.59263 59.3818 10.1044 59.8926C10.6162 60.4035 11.2237 60.8084 11.8921 61.0842C12.5606 61.36 13.2768 61.5013 14 61.5H32V2.5Z" fill="#030303" id="id_102"></path>
<path d="M58.7 13.5502C57.2863 12.4064 55.5048 11.816 53.6878 11.889C51.8709 11.9621 50.1426 12.6937 48.8253 13.9473C47.508 15.2009 46.6918 16.8909 46.5289 18.702C46.366 20.5131 46.8676 22.3216 47.94 23.7902L40 32.3402L35.49 16.6202C36.6946 15.9809 37.703 15.0264 38.4075 13.8587C39.1119 12.691 39.4861 11.3539 39.49 9.99018C39.4901 8.99811 39.2931 8.0159 38.9104 7.10059C38.5278 6.18528 37.9671 5.35511 37.261 4.65828C36.5548 3.96144 35.7173 3.41183 34.797 3.04136C33.8767 2.67089 32.8919 2.48693 31.9 2.50018C30.2349 2.5256 28.6257 3.10442 27.326 4.14541C26.0262 5.18639 25.1099 6.63032 24.7214 8.24959C24.3329 9.86887 24.4944 11.5714 25.1803 13.0888C25.8663 14.6061 27.0377 15.8521 28.51 16.6302L24 32.3402L16.1 23.7802C17.2267 22.2305 17.7159 20.3076 17.4666 18.4079C17.2173 16.5082 16.2485 14.7766 14.76 13.5702C13.3243 12.3653 11.4896 11.7416 9.61703 11.8219C7.74449 11.9023 5.9699 12.6808 4.64272 14.0042C3.31554 15.3276 2.53197 17.1 2.44632 18.9723C2.36067 20.8446 2.97915 22.6811 4.17996 24.1202C5.271 25.4631 6.79438 26.3856 8.48996 26.7302V56.0002C8.48996 56.7233 8.63255 57.4393 8.90958 58.1073C9.1866 58.7752 9.59263 59.382 10.1044 59.8928C10.6162 60.4037 11.2237 60.8086 11.8921 61.0844C12.5606 61.3602 13.2768 61.5015 14 61.5002H50C51.4587 61.5002 52.8576 60.9207 53.889 59.8893C54.9205 58.8578 55.5 57.4589 55.5 56.0002V26.7302C56.8945 26.4471 58.1796 25.7725 59.2047 24.7855C60.2299 23.7985 60.9526 22.5399 61.2883 21.1571C61.6241 19.7742 61.559 18.3243 61.1006 16.9772C60.6422 15.63 59.8095 14.4413 58.7 13.5502V13.5502ZM54 23.8802C53.6021 23.8802 53.2206 24.0382 52.9393 24.3195C52.658 24.6008 52.5 24.9824 52.5 25.3802V56.0002C52.4973 56.6624 52.2331 57.2968 51.7648 57.765C51.2965 58.2333 50.6622 58.4975 50 58.5002H14C13.3377 58.4975 12.7034 58.2333 12.2351 57.765C11.7668 57.2968 11.5026 56.6624 11.5 56.0002V25.3802C11.5 24.9824 11.3419 24.6008 11.0606 24.3195C10.7793 24.0382 10.3978 23.8802 9.99996 23.8802C8.88598 23.8949 7.8063 23.495 6.97071 22.7582C6.13513 22.0213 5.60333 21.0001 5.47866 19.893C5.35399 18.7859 5.64535 17.6721 6.29612 16.7678C6.94689 15.8636 7.9106 15.2335 8.99996 15.0002C9.32857 14.9289 9.66371 14.892 9.99996 14.8902C10.904 14.8948 11.7855 15.1721 12.5293 15.686C13.2731 16.1998 13.8444 16.9262 14.1686 17.7701C14.4927 18.614 14.5546 19.5361 14.3461 20.4157C14.1376 21.2954 13.6684 22.0916 13 22.7002C12.7062 22.9711 12.5317 23.3473 12.5149 23.7466C12.498 24.1458 12.6401 24.5355 12.91 24.8302L23.53 36.3302C23.7104 36.5247 23.9391 36.668 24.1929 36.7453C24.4468 36.8226 24.7165 36.8311 24.9748 36.7702C25.233 36.7092 25.4704 36.5808 25.6628 36.3981C25.8552 36.2154 25.9957 35.9849 26.07 35.7302L31.74 16.1702C31.8521 15.7909 31.81 15.3827 31.6227 15.0344C31.4355 14.686 31.1182 14.4258 30.74 14.3102C29.7435 14.0171 28.8784 13.3898 28.2902 12.5339C27.7019 11.6779 27.4264 10.6454 27.51 9.61018C27.6236 8.5041 28.1358 7.47715 28.9509 6.7209C29.7661 5.96466 30.8285 5.53077 31.94 5.50018C33.0315 5.47846 34.0936 5.85519 34.9275 6.55991C35.7613 7.26462 36.3099 8.24901 36.4705 9.32891C36.631 10.4088 36.3926 11.5102 35.7999 12.4271C35.2071 13.3439 34.3006 14.0134 33.25 14.3102C32.8717 14.4258 32.5545 14.686 32.3672 15.0344C32.1799 15.3827 32.1378 15.7909 32.25 16.1702L37.9 35.7302C37.9742 35.9849 38.1147 36.2154 38.3071 36.3981C38.4995 36.5808 38.7369 36.7092 38.9952 36.7702C39.2534 36.8311 39.5232 36.8226 39.777 36.7453C40.0308 36.668 40.2596 36.5247 40.44 36.3302L51.06 24.8302C51.3337 24.5394 51.481 24.152 51.4698 23.7528C51.4585 23.3536 51.2896 22.9751 51 22.7002C50.227 21.9916 49.7263 21.0348 49.5849 19.9958C49.4435 18.9567 49.6702 17.901 50.2258 17.0116C50.7813 16.1222 51.6306 15.4553 52.6264 15.1266C53.6222 14.7979 54.7016 14.8281 55.6774 15.2119C56.6533 15.5957 57.464 16.309 57.969 17.228C58.474 18.1471 58.6414 19.2138 58.4421 20.2434C58.2429 21.2729 57.6896 22.2002 56.8782 22.8645C56.0668 23.5288 55.0486 23.8881 54 23.8802V23.8802Z" fill="black" id="id_103"></path>
</svg>