<?xml version="1.0" encoding="UTF-8" standalone="no"?> <svg id="Layer_1" data-name="Layer 1" xmlns="http://www.w3.org/2000/svg" viewBox="0 0 512 512"><title>Invisible</title><path d="M509.57,246.1A436.89,436.89,0,0,0,461,172a338.91,338.91,0,0,0-59.54-57.4,264.24,264.24,0,0,0-69-37.31,226.1,226.1,0,0,0-147-2,21.33,21.33,0,1,0,13.24,40.56,183.5,183.5,0,0,1,119.51,1.62A221.59,221.59,0,0,1,376,148.84,296,296,0,0,1,428,199a386.85,386.85,0,0,1,38.45,57,373.59,373.59,0,0,1-50.54,70.92,21.33,21.33,0,1,0,31.45,28.83c23.49-25.61,44.43-55.85,62.24-89.85A21.38,21.38,0,0,0,509.57,246.1Z"/><path d="M316.34,286.17h0l-90.51-90.51h0L100.42,70.25a21.33,21.33,0,0,0-30.17,30.17L96,126.15a347.13,347.13,0,0,0-42.75,43.17A434.54,434.54,0,0,0,2.43,246.1a21.38,21.38,0,0,0,0,19.8A436.89,436.89,0,0,0,51,340a338.91,338.91,0,0,0,59.54,57.4,264.24,264.24,0,0,0,69,37.31,226.11,226.11,0,0,0,149.82,1,254.83,254.83,0,0,0,51.64-24.51l30.52,30.52a21.33,21.33,0,0,0,30.17-30.17ZM214.78,245l52.27,52.27A42.69,42.69,0,0,1,214.78,245Zm100.91,150.4a183.56,183.56,0,0,1-121.82-.85A221.59,221.59,0,0,1,136,363.16,296,296,0,0,1,84,313a386.32,386.32,0,0,1-38.45-57A384.76,384.76,0,0,1,86,196.66a301.69,301.69,0,0,1,40.29-40.21l56.21,56.21a86.38,86.38,0,0,0-5.11,10.12A85.37,85.37,0,0,0,289.22,334.62a86.38,86.38,0,0,0,10.12-5.11l50.55,50.55A208.33,208.33,0,0,1,315.69,395.35Z"/><path d="M287.81,227.56a44.07,44.07,0,0,1,3.76,4.86A21.33,21.33,0,1,0,327.1,208.8a85.76,85.76,0,0,0-23.49-23.62,21.33,21.33,0,1,0-23.83,35.39A43.12,43.12,0,0,1,287.81,227.56Z"/></svg>