<?xml version="1.0" encoding="UTF-8" standalone="no"?> <svg width="64" height="64" viewBox="0 0 64 64" fill="none" xmlns="http://www.w3.org/2000/svg">
<path d="M59 2H5C4.20435 2 3.44129 2.31607 2.87868 2.87868C2.31607 3.44129 2 4.20435 2 5V59C2 59.7956 2.31607 60.5587 2.87868 61.1213C3.44129 61.6839 4.20435 62 5 62H59C59.7956 62 60.5587 61.6839 61.1213 61.1213C61.6839 60.5587 62 59.7956 62 59V5C62 4.20435 61.6839 3.44129 61.1213 2.87868C60.5587 2.31607 59.7956 2 59 2V2ZM4 5C4 4.73478 4.10536 4.48043 4.29289 4.29289C4.48043 4.10536 4.73478 4 5 4H59C59.2652 4 59.5196 4.10536 59.7071 4.29289C59.8946 4.48043 60 4.73478 60 5V14H4V5ZM60 59C60 59.2652 59.8946 59.5196 59.7071 59.7071C59.5196 59.8946 59.2652 60 59 60H5C4.73478 60 4.48043 59.8946 4.29289 59.7071C4.10536 59.5196 4 59.2652 4 59V16H60V59Z" fill="black"/>
<path d="M55 12H31C30.2044 12 29.4413 11.6839 28.8787 11.1213C28.3161 10.5587 28 9.79565 28 9C28 8.20435 28.3161 7.44129 28.8787 6.87868C29.4413 6.31607 30.2044 6 31 6H55C55.7956 6 56.5587 6.31607 57.1213 6.87868C57.6839 7.44129 58 8.20435 58 9C58 9.79565 57.6839 10.5587 57.1213 11.1213C56.5587 11.6839 55.7956 12 55 12ZM31 8C30.7348 8 30.4804 8.10536 30.2929 8.29289C30.1054 8.48043 30 8.73478 30 9C30 9.26522 30.1054 9.51957 30.2929 9.70711C30.4804 9.89464 30.7348 10 31 10H55C55.2652 10 55.5196 9.89464 55.7071 9.70711C55.8946 9.51957 56 9.26522 56 9C56 8.73478 55.8946 8.48043 55.7071 8.29289C55.5196 8.10536 55.2652 8 55 8H31Z" fill="black"/>
<path d="M9 12C8.40666 12 7.82664 11.8241 7.33329 11.4944C6.83994 11.1648 6.45543 10.6962 6.22836 10.1481C6.0013 9.59987 5.94189 8.99667 6.05765 8.41473C6.1734 7.83279 6.45912 7.29824 6.87868 6.87868C7.29824 6.45912 7.83279 6.1734 8.41473 6.05765C8.99667 5.94189 9.59987 6.0013 10.1481 6.22836C10.6962 6.45543 11.1648 6.83994 11.4944 7.33329C11.8241 7.82664 12 8.40666 12 9C12 9.79565 11.6839 10.5587 11.1213 11.1213C10.5587 11.6839 9.79565 12 9 12ZM9 8C8.80222 8 8.60888 8.05865 8.44443 8.16853C8.27998 8.27841 8.15181 8.43459 8.07612 8.61732C8.00043 8.80004 7.98063 9.00111 8.01922 9.19509C8.0578 9.38907 8.15304 9.56726 8.29289 9.70711C8.43275 9.84696 8.61093 9.9422 8.80491 9.98079C8.99889 10.0194 9.19996 9.99957 9.38268 9.92388C9.56541 9.84819 9.72159 9.72002 9.83147 9.55557C9.94135 9.39112 10 9.19778 10 9C10 8.73478 9.89464 8.48043 9.70711 8.29289C9.51957 8.10536 9.26522 8 9 8Z" fill="black"/>
<path d="M16 12C15.4067 12 14.8266 11.8241 14.3333 11.4944C13.8399 11.1648 13.4554 10.6962 13.2284 10.1481C13.0013 9.59987 12.9419 8.99667 13.0576 8.41473C13.1734 7.83279 13.4591 7.29824 13.8787 6.87868C14.2982 6.45912 14.8328 6.1734 15.4147 6.05765C15.9967 5.94189 16.5999 6.0013 17.1481 6.22836C17.6962 6.45543 18.1648 6.83994 18.4944 7.33329C18.8241 7.82664 19 8.40666 19 9C19 9.79565 18.6839 10.5587 18.1213 11.1213C17.5587 11.6839 16.7957 12 16 12ZM16 8C15.8022 8 15.6089 8.05865 15.4444 8.16853C15.28 8.27841 15.1518 8.43459 15.0761 8.61732C15.0004 8.80004 14.9806 9.00111 15.0192 9.19509C15.0578 9.38907 15.153 9.56726 15.2929 9.70711C15.4327 9.84696 15.6109 9.9422 15.8049 9.98079C15.9989 10.0194 16.2 9.99957 16.3827 9.92388C16.5654 9.84819 16.7216 9.72002 16.8315 9.55557C16.9414 9.39112 17 9.19778 17 9C17 8.73478 16.8946 8.48043 16.7071 8.29289C16.5196 8.10536 16.2652 8 16 8Z" fill="black"/>
<path d="M23 12C22.4067 12 21.8266 11.8241 21.3333 11.4944C20.8399 11.1648 20.4554 10.6962 20.2284 10.1481C20.0013 9.59987 19.9419 8.99667 20.0576 8.41473C20.1734 7.83279 20.4591 7.29824 20.8787 6.87868C21.2982 6.45912 21.8328 6.1734 22.4147 6.05765C22.9967 5.94189 23.5999 6.0013 24.1481 6.22836C24.6962 6.45543 25.1648 6.83994 25.4944 7.33329C25.8241 7.82664 26 8.40666 26 9C26 9.79565 25.6839 10.5587 25.1213 11.1213C24.5587 11.6839 23.7957 12 23 12ZM23 8C22.8022 8 22.6089 8.05865 22.4444 8.16853C22.28 8.27841 22.1518 8.43459 22.0761 8.61732C22.0004 8.80004 21.9806 9.00111 22.0192 9.19509C22.0578 9.38907 22.153 9.56726 22.2929 9.70711C22.4327 9.84696 22.6109 9.9422 22.8049 9.98079C22.9989 10.0194 23.2 9.99957 23.3827 9.92388C23.5654 9.84819 23.7216 9.72002 23.8315 9.55557C23.9414 9.39112 24 9.19778 24 9C24 8.73478 23.8946 8.48043 23.7071 8.29289C23.5196 8.10536 23.2652 8 23 8Z" fill="black"/>
<path d="M27 34H11C10.7348 34 10.4804 33.8946 10.2929 33.7071C10.1054 33.5196 10 33.2652 10 33V21C10 20.7348 10.1054 20.4804 10.2929 20.2929C10.4804 20.1054 10.7348 20 11 20H27C27.2652 20 27.5196 20.1054 27.7071 20.2929C27.8946 20.4804 28 20.7348 28 21V33C28 33.2652 27.8946 33.5196 27.7071 33.7071C27.5196 33.8946 27.2652 34 27 34ZM12 32H26V22H12V32Z" fill="black"/>
<path d="M53 24H33C32.7348 24 32.4804 23.8946 32.2929 23.7071C32.1054 23.5196 32 23.2652 32 23C32 22.7348 32.1054 22.4804 32.2929 22.2929C32.4804 22.1054 32.7348 22 33 22H53C53.2652 22 53.5196 22.1054 53.7071 22.2929C53.8946 22.4804 54 22.7348 54 23C54 23.2652 53.8946 23.5196 53.7071 23.7071C53.5196 23.8946 53.2652 24 53 24Z" fill="black"/>
<path d="M53 28H33C32.7348 28 32.4804 27.8946 32.2929 27.7071C32.1054 27.5196 32 27.2652 32 27C32 26.7348 32.1054 26.4804 32.2929 26.2929C32.4804 26.1054 32.7348 26 33 26H53C53.2652 26 53.5196 26.1054 53.7071 26.2929C53.8946 26.4804 54 26.7348 54 27C54 27.2652 53.8946 27.5196 53.7071 27.7071C53.5196 27.8946 53.2652 28 53 28Z" fill="black"/>
<path d="M53 32H33C32.7348 32 32.4804 31.8946 32.2929 31.7071C32.1054 31.5196 32 31.2652 32 31C32 30.7348 32.1054 30.4804 32.2929 30.2929C32.4804 30.1054 32.7348 30 33 30H53C53.2652 30 53.5196 30.1054 53.7071 30.2929C53.8946 30.4804 54 30.7348 54 31C54 31.2652 53.8946 31.5196 53.7071 31.7071C53.5196 31.8946 53.2652 32 53 32Z" fill="black"/>
<path d="M53 42H43C42.7348 42 42.4804 41.8946 42.2929 41.7071C42.1054 41.5196 42 41.2652 42 41V37C42 36.7348 42.1054 36.4804 42.2929 36.2929C42.4804 36.1054 42.7348 36 43 36H53C53.2652 36 53.5196 36.1054 53.7071 36.2929C53.8946 36.4804 54 36.7348 54 37V41C54 41.2652 53.8946 41.5196 53.7071 41.7071C53.5196 41.8946 53.2652 42 53 42ZM44 40H52V38H44V40Z" fill="black"/>
<path d="M21 42H11C10.7348 42 10.4804 41.8946 10.2929 41.7071C10.1054 41.5196 10 41.2652 10 41V37C10 36.7348 10.1054 36.4804 10.2929 36.2929C10.4804 36.1054 10.7348 36 11 36H21C21.2652 36 21.5196 36.1054 21.7071 36.2929C21.8946 36.4804 22 36.7348 22 37V41C22 41.2652 21.8946 41.5196 21.7071 41.7071C21.5196 41.8946 21.2652 42 21 42ZM12 40H20V38H12V40Z" fill="black"/>
<path d="M37 42H27C26.7348 42 26.4804 41.8946 26.2929 41.7071C26.1054 41.5196 26 41.2652 26 41V37C26 36.7348 26.1054 36.4804 26.2929 36.2929C26.4804 36.1054 26.7348 36 27 36H37C37.2652 36 37.5196 36.1054 37.7071 36.2929C37.8946 36.4804 38 36.7348 38 37V41C38 41.2652 37.8946 41.5196 37.7071 41.7071C37.5196 41.8946 37.2652 42 37 42ZM28 40H36V38H28V40Z" fill="black"/>
<path d="M53 56H11C10.7348 56 10.4804 55.8946 10.2929 55.7071C10.1054 55.5196 10 55.2652 10 55V45C10 44.7348 10.1054 44.4804 10.2929 44.2929C10.4804 44.1054 10.7348 44 11 44H53C53.2652 44 53.5196 44.1054 53.7071 44.2929C53.8946 44.4804 54 44.7348 54 45V55C54 55.2652 53.8946 55.5196 53.7071 55.7071C53.5196 55.8946 53.2652 56 53 56ZM12 54H52V46H12V54Z" fill="black"/>
</svg>
