<?xml version="1.0" encoding="UTF-8" standalone="no"?> <svg width="60" height="60" viewBox="0 0 60 60" fill="none" xmlns="http://www.w3.org/2000/svg">
<g clip-path="url(#clip0)">
<path d="M42.5 42.1702H3.93994C2.87945 42.169 1.86274 41.7472 1.11285 40.9973C0.36297 40.2474 -0.0588464 39.2307 -0.0600586 38.1702V21.1805C-0.0588464 20.12 0.36297 19.1032 1.11285 18.3534C1.86274 17.6035 2.87945 17.1817 3.93994 17.1805H42.5C42.7652 17.1805 43.0196 17.2858 43.2071 17.4733C43.3946 17.6609 43.5 17.9152 43.5 18.1805C43.5 18.4457 43.3946 18.7 43.2071 18.8876C43.0196 19.0751 42.7652 19.1805 42.5 19.1805H3.93994C3.40967 19.181 2.90127 19.3919 2.52631 19.7668C2.15135 20.1418 1.94047 20.6502 1.93994 21.1805V38.1702C1.94047 38.7005 2.15135 39.2089 2.52631 39.5838C2.90127 39.9588 3.40967 40.1697 3.93994 40.1702H42.5C42.7652 40.1702 43.0196 40.2756 43.2071 40.4631C43.3946 40.6506 43.5 40.905 43.5 41.1702C43.5 41.4354 43.3946 41.6898 43.2071 41.8773C43.0196 42.0648 42.7652 42.1702 42.5 42.1702ZM59.9399 38.1702V21.1805C59.9387 20.12 59.5169 19.1032 58.767 18.3534C58.0171 17.6035 57.0004 17.1817 55.9399 17.1805H50.5C50.2348 17.1805 49.9804 17.2858 49.7929 17.4733C49.6054 17.6609 49.5 17.9152 49.5 18.1805C49.5 18.4457 49.6054 18.7 49.7929 18.8876C49.9804 19.0751 50.2348 19.1805 50.5 19.1805H55.9399C56.4702 19.181 56.9786 19.3919 57.3536 19.7668C57.7285 20.1418 57.9394 20.6502 57.9399 21.1805V38.1702C57.9394 38.7005 57.7285 39.2089 57.3536 39.5838C56.9786 39.9588 56.4702 40.1697 55.9399 40.1702H50.5C50.2348 40.1702 49.9804 40.2756 49.7929 40.4631C49.6054 40.6506 49.5 40.905 49.5 41.1702C49.5 41.4354 49.6054 41.6898 49.7929 41.8773C49.9804 42.0648 50.2348 42.1702 50.5 42.1702H55.9399C57.0004 42.169 58.0171 41.7472 58.767 40.9973C59.5169 40.2474 59.9387 39.2307 59.9399 38.1702V38.1702ZM28.5151 37.6038V21.7469C28.5151 21.4816 28.4098 21.2273 28.2222 21.0397C28.0347 20.8522 27.7804 20.7469 27.5151 20.7469C27.2499 20.7469 26.9956 20.8522 26.808 21.0397C26.6205 21.2273 26.5151 21.4816 26.5151 21.7469V37.6038C26.5151 37.869 26.6205 38.1234 26.808 38.3109C26.9956 38.4984 27.2499 38.6038 27.5151 38.6038C27.7804 38.6038 28.0347 38.4984 28.2222 38.3109C28.4098 38.1234 28.5151 37.869 28.5151 37.6038V37.6038ZM57.46 49.4303H47.5V10.5303H57.46C57.7252 10.5303 57.9796 10.4249 58.1671 10.2374C58.3546 10.0498 58.46 9.79549 58.46 9.53027C58.46 9.26506 58.3546 9.0107 58.1671 8.82317C57.9796 8.63563 57.7252 8.53027 57.46 8.53027H35.54C35.2748 8.53027 35.0204 8.63563 34.8329 8.82317C34.6454 9.0107 34.54 9.26506 34.54 9.53027C34.54 9.79549 34.6454 10.0498 34.8329 10.2374C35.0204 10.4249 35.2748 10.5303 35.54 10.5303H45.5V49.4303H35.54C35.2748 49.4303 35.0204 49.5356 34.8329 49.7232C34.6454 49.9107 34.54 50.1651 34.54 50.4303C34.54 50.6955 34.6454 50.9498 34.8329 51.1374C35.0204 51.3249 35.2748 51.4303 35.54 51.4303H57.46C57.7252 51.4303 57.9796 51.3249 58.1671 51.1374C58.3546 50.9498 58.46 50.6955 58.46 50.4303C58.46 50.1651 58.3546 49.9107 58.1671 49.7232C57.9796 49.5356 57.7252 49.4303 57.46 49.4303Z" fill="black"/>
</g>
<defs>
<clipPath id="clip0">
<rect width="60" height="60" fill="white"/>
</clipPath>
</defs>
</svg>
