<?xml version="1.0" encoding="UTF-8" standalone="no"?> <svg id="Layer_1" data-name="Layer 1" xmlns="http://www.w3.org/2000/svg" viewBox="0 0 512 512"><title>Visible</title><path d="M509.57,246.1A436.89,436.89,0,0,0,461,172a338.91,338.91,0,0,0-59.54-57.4,264.24,264.24,0,0,0-69-37.31,226.24,226.24,0,0,0-152.8,0,264.24,264.24,0,0,0-69,37.31A338.91,338.91,0,0,0,51,172,436.89,436.89,0,0,0,2.43,246.1a21.38,21.38,0,0,0,0,19.8A436.89,436.89,0,0,0,51,340a338.91,338.91,0,0,0,59.54,57.4,264.24,264.24,0,0,0,69,37.31,226.24,226.24,0,0,0,152.8,0,264.24,264.24,0,0,0,69-37.31A338.91,338.91,0,0,0,461,340a436.89,436.89,0,0,0,48.59-74.1A21.38,21.38,0,0,0,509.57,246.1ZM428,313a296,296,0,0,1-52,50.2,221.59,221.59,0,0,1-57.86,31.34,183.63,183.63,0,0,1-124.26,0A221.59,221.59,0,0,1,136,363.16,296,296,0,0,1,84,313a386.32,386.32,0,0,1-38.45-57A386.32,386.32,0,0,1,84,199a296,296,0,0,1,52-50.2,221.59,221.59,0,0,1,57.86-31.34,183.63,183.63,0,0,1,124.26,0A221.59,221.59,0,0,1,376,148.84,296,296,0,0,1,428,199a386.32,386.32,0,0,1,38.45,57A386.32,386.32,0,0,1,428,313Z"/><path d="M316.34,195.66a85.11,85.11,0,1,0,18.28,27.12A85,85,0,0,0,316.34,195.66ZM256,298.67A42.67,42.67,0,1,1,298.67,256,42.72,42.72,0,0,1,256,298.67Z"/></svg>